<svg xmlns="http://www.w3.org/2000/svg" viewBox="0 0 64 64">
  <defs>
    <linearGradient id="bg" x1="0%" y1="0%" x2="100%" y2="100%">
      <stop offset="0%" style="stop-color:#1C1225"/>
      <stop offset="100%" style="stop-color:#3B1328"/>
    </linearGradient>
    <linearGradient id="gold" x1="0%" y1="0%" x2="100%" y2="100%">
      <stop offset="0%" style="stop-color:#D4AF7A"/>
      <stop offset="100%" style="stop-color:#B8965A"/>
    </linearGradient>
  </defs>
  <circle cx="32" cy="32" r="32" fill="url(#bg)"/>
  <path d="M32 47 C32 47 13 35 13 22 C13 15.5 18 11 24 11 C27.8 11 31 13 32 15.5 C33 13 36.2 11 40 11 C46 11 51 15.5 51 22 C51 35 32 47 32 47Z" fill="url(#gold)"/>
  <path d="M32 43 C32 43 17 33 17 22 C17 18 20 15 24 15 C27 15 30 17 32 20" fill="none" stroke="#F5ECD9" stroke-width="1.2" opacity="0.35" stroke-linecap="round"/>
</svg>
